<svg xmlns="http://www.w3.org/2000/svg" width="1280" height="720" viewBox="0 0 1280 720">
<rect width="100%" height="100%" fill="#111827" />
<rect x="320" y="140" width="640" height="320" fill="none" stroke="#60a5fa" stroke-width="2" />
<text x="324" y="158" fill="#93c5fd" font-size="14">spawn_roi</text>
<line x1="630.0" y1="360.0" x2="650.0" y2="360.0" stroke="#fde047" stroke-width="2" />
<line x1="640.0" y1="350.0" x2="640.0" y2="370.0" stroke="#fde047" stroke-width="2" />
<rect x="720" y="231" width="40" height="52" fill="none" stroke="#38bdf8" stroke-dasharray="4 4" stroke-width="1" />
<text x="720" y="229" fill="#38bdf8" font-size="11">mob_a 1.00</text>
<rect x="766" y="265" width="40" height="52" fill="none" stroke="#38bdf8" stroke-dasharray="4 4" stroke-width="1" />
<text x="766" y="263" fill="#38bdf8" font-size="11">mob_b 1.00</text>
<rect x="638" y="229" width="40" height="52" fill="none" stroke="#38bdf8" stroke-dasharray="4 4" stroke-width="1" />
<text x="638" y="227" fill="#38bdf8" font-size="11">mob_a 1.00</text>
<rect x="638" y="229" width="40" height="52" fill="none" stroke="#22c55e" stroke-width="4" />
<circle cx="658" cy="255" r="4" fill="#22c55e" />
<text x="638" y="223" fill="#f9fafb" font-size="14">live-spawn-10-3 free conf=1.00 dist=106.5 marker=0.00</text>
<text x="638" y="299" fill="#fde047" font-size="14">selected</text>
<rect x="720" y="231" width="40" height="52" fill="none" stroke="#22c55e" stroke-width="2" />
<circle cx="740" cy="257" r="4" fill="#22c55e" />
<text x="720" y="225" fill="#f9fafb" font-size="14">live-spawn-10-1 free conf=1.00 dist=143.6 marker=0.00</text>
<rect x="766" y="265" width="40" height="52" fill="none" stroke="#22c55e" stroke-width="2" />
<circle cx="786" cy="291" r="4" fill="#22c55e" />
<text x="766" y="259" fill="#f9fafb" font-size="14">live-spawn-10-2 free conf=1.00 dist=161.5 marker=0.00</text>
</svg>