<svg xmlns="http://www.w3.org/2000/svg" width="0" height="0" viewBox="0 0 0 0">
<rect width="100%" height="100%" fill="#111827" />
<rect x="0" y="0" width="1" height="1" fill="none" stroke="#60a5fa" stroke-width="2" />
<polygon points="0.0,0.0 0.0,0.0 0.0,0.0 0.0,0.0 0.0,0.0 0.0,0.0 0.0,0.0 0.0,0.0 0.0,0.0 0.0,0.0 0.0,0.0 0.0,0.0 0.0,0.0 0.0,0.0 0.0,0.0 0.0,0.0 0.0,0.0 0.0,0.0 0.0,0.0 0.0,0.0 0.0,0.0 0.0,0.0 0.0,0.0" fill="#22c55e" fill-opacity="0.08" stroke="#22c55e" stroke-width="3" />
<rect x="40" y="40" width="220" height="18" fill="none" stroke="#f87171" stroke-width="2" />
<text x="44" y="36" fill="#f87171" font-size="12">hp_bar_roi</text>
<rect x="40" y="68" width="220" height="18" fill="none" stroke="#4ade80" stroke-width="2" />
<text x="44" y="64" fill="#4ade80" font-size="12">condition_bar_roi</text>
<rect x="560" y="620" width="160" height="60" fill="none" stroke="#fb7185" stroke-width="2" />
<text x="564" y="616" fill="#fb7185" font-size="12">combat_indicator_roi</text>
<rect x="500" y="120" width="260" height="120" fill="none" stroke="#facc15" stroke-width="2" />
<text x="504" y="116" fill="#facc15" font-size="12">reward_roi</text>
<text x="16" y="24" fill="#f9fafb" font-size="18">engage outcome=no_target_available reason=no_selectable_target</text>
<text x="16" y="-24" fill="#e5e7eb" font-size="14">input_counts=rc:0 key:0 seq:0 real:0</text>
</svg>