<svg xmlns="http://www.w3.org/2000/svg" width="1280" height="720" viewBox="0 0 1280 720">
<rect width="100%" height="100%" fill="#111827" />
<rect x="320" y="140" width="640" height="320" fill="none" stroke="#60a5fa" stroke-width="2" />
<text x="324" y="158" fill="#93c5fd" font-size="14">spawn_roi</text>
<line x1="630.0" y1="360.0" x2="650.0" y2="360.0" stroke="#fde047" stroke-width="2" />
<line x1="640.0" y1="350.0" x2="640.0" y2="370.0" stroke="#fde047" stroke-width="2" />
<rect x="644" y="249" width="40" height="52" fill="none" stroke="#38bdf8" stroke-dasharray="4 4" stroke-width="1" />
<text x="644" y="247" fill="#38bdf8" font-size="11">mob_a 1.00</text>
<rect x="677" y="305" width="40" height="52" fill="none" stroke="#38bdf8" stroke-dasharray="4 4" stroke-width="1" />
<text x="677" y="303" fill="#38bdf8" font-size="11">mob_b 1.00</text>
<rect x="714" y="327" width="40" height="52" fill="none" stroke="#38bdf8" stroke-dasharray="4 4" stroke-width="1" />
<text x="714" y="325" fill="#38bdf8" font-size="11">mob_a 1.00</text>
<rect x="677" y="305" width="40" height="52" fill="none" stroke="#22c55e" stroke-width="4" />
<circle cx="697" cy="331" r="4" fill="#22c55e" />
<text x="677" y="299" fill="#f9fafb" font-size="14">live-spawn-5-2 free conf=1.00 dist=64.0 marker=0.00</text>
<text x="677" y="375" fill="#fde047" font-size="14">selected</text>
<rect x="644" y="249" width="40" height="52" fill="none" stroke="#22c55e" stroke-width="2" />
<circle cx="664" cy="275" r="4" fill="#22c55e" />
<text x="644" y="243" fill="#f9fafb" font-size="14">live-spawn-5-1 free conf=1.00 dist=88.3 marker=0.00</text>
<rect x="714" y="327" width="40" height="52" fill="none" stroke="#22c55e" stroke-width="2" />
<circle cx="734" cy="353" r="4" fill="#22c55e" />
<text x="714" y="321" fill="#f9fafb" font-size="14">live-spawn-5-3 free conf=1.00 dist=94.3 marker=0.00</text>
</svg>