<svg xmlns="http://www.w3.org/2000/svg" width="1280" height="720" viewBox="0 0 1280 720">
<rect width="100%" height="100%" fill="#111827" />
<rect x="320" y="140" width="640" height="320" fill="none" stroke="#60a5fa" stroke-width="2" />
<text x="324" y="158" fill="#93c5fd" font-size="14">spawn_roi</text>
<line x1="630.0" y1="360.0" x2="650.0" y2="360.0" stroke="#fde047" stroke-width="2" />
<line x1="640.0" y1="350.0" x2="640.0" y2="370.0" stroke="#fde047" stroke-width="2" />
<rect x="600" y="274" width="40" height="52" fill="none" stroke="#38bdf8" stroke-dasharray="4 4" stroke-width="1" />
<text x="600" y="272" fill="#38bdf8" font-size="11">mob_b 1.00</text>
<rect x="740" y="292" width="40" height="52" fill="none" stroke="#38bdf8" stroke-dasharray="4 4" stroke-width="1" />
<text x="740" y="290" fill="#38bdf8" font-size="11">mob_a 1.00</text>
<rect x="600" y="274" width="40" height="52" fill="none" stroke="#22c55e" stroke-width="4" />
<circle cx="620" cy="300" r="4" fill="#22c55e" />
<text x="600" y="268" fill="#f9fafb" font-size="14">front-free free conf=1.00 dist=63.2 marker=0.00</text>
<text x="600" y="344" fill="#fde047" font-size="14">selected</text>
<rect x="740" y="292" width="40" height="52" fill="none" stroke="#22c55e" stroke-width="2" />
<circle cx="760" cy="318" r="4" fill="#22c55e" />
<text x="740" y="286" fill="#f9fafb" font-size="14">safe-far free conf=1.00 dist=127.1 marker=0.00</text>
<rect x="8" y="636" width="760" height="78" fill="#020617" fill-opacity="0.80" stroke="#334155" stroke-width="1" />
<text x="16" y="670" fill="#f8fafc" font-size="13">thresholds=mob>=0.60 occupied>=0.75 merge_px=28 stride=4</text>
<text x="16" y="686" fill="#f8fafc" font-size="13">raw=2 low_conf=0 merged=2 dup=0 unstable=0 veto=0 not_icy=0</text>
<text x="16" y="702" fill="#f8fafc" font-size="13">rejects=occupied=0 out_of_zone=0 selected=front-free</text>
</svg>