<svg xmlns="http://www.w3.org/2000/svg" width="1280" height="720" viewBox="0 0 1280 720">
<rect width="100%" height="100%" fill="#111827" />
<rect x="320" y="140" width="640" height="320" fill="none" stroke="#60a5fa" stroke-width="2" />
<text x="324" y="158" fill="#93c5fd" font-size="14">spawn_roi</text>
<line x1="630.0" y1="360.0" x2="650.0" y2="360.0" stroke="#fde047" stroke-width="2" />
<line x1="640.0" y1="350.0" x2="640.0" y2="370.0" stroke="#fde047" stroke-width="2" />
<rect x="768" y="269" width="40" height="52" fill="none" stroke="#38bdf8" stroke-dasharray="4 4" stroke-width="1" />
<text x="768" y="267" fill="#38bdf8" font-size="11">mob_a 1.00</text>
<rect x="615" y="240" width="40" height="52" fill="none" stroke="#38bdf8" stroke-dasharray="4 4" stroke-width="1" />
<text x="615" y="238" fill="#38bdf8" font-size="11">mob_b 1.00</text>
<rect x="684" y="335" width="40" height="52" fill="none" stroke="#38bdf8" stroke-dasharray="4 4" stroke-width="1" />
<text x="684" y="333" fill="#38bdf8" font-size="11">mob_a 1.00</text>
<rect x="684" y="335" width="40" height="52" fill="none" stroke="#22c55e" stroke-width="4" />
<circle cx="704" cy="361" r="4" fill="#22c55e" />
<text x="684" y="329" fill="#f9fafb" font-size="14">live-spawn-7-3 free conf=1.00 dist=64.0 marker=0.00</text>
<text x="684" y="405" fill="#fde047" font-size="14">selected</text>
<rect x="615" y="240" width="40" height="52" fill="none" stroke="#22c55e" stroke-width="2" />
<circle cx="635" cy="266" r="4" fill="#22c55e" />
<text x="615" y="234" fill="#f9fafb" font-size="14">live-spawn-7-2 free conf=1.00 dist=94.1 marker=0.00</text>
<rect x="768" y="269" width="40" height="52" fill="none" stroke="#22c55e" stroke-width="2" />
<circle cx="788" cy="295" r="4" fill="#22c55e" />
<text x="768" y="263" fill="#f9fafb" font-size="14">live-spawn-7-1 free conf=1.00 dist=161.6 marker=0.00</text>
</svg>