<svg xmlns="http://www.w3.org/2000/svg" width="0" height="0" viewBox="0 0 0 0">
<rect width="100%" height="100%" fill="#111827" />
<rect x="0" y="0" width="1" height="1" fill="none" stroke="#60a5fa" stroke-width="2" />
<text x="4" y="18" fill="#93c5fd" font-size="14">spawn_roi</text>
<line x1="-10.0" y1="0.0" x2="10.0" y2="0.0" stroke="#fde047" stroke-width="2" />
<line x1="0.0" y1="-10.0" x2="0.0" y2="10.0" stroke="#fde047" stroke-width="2" />
<polygon points="0.0,0.0 0.0,0.0 0.0,0.0 0.0,0.0 0.0,0.0 0.0,0.0 0.0,0.0 0.0,0.0 0.0,0.0 0.0,0.0 0.0,0.0 0.0,0.0 0.0,0.0 0.0,0.0 0.0,0.0 0.0,0.0 0.0,0.0 0.0,0.0 0.0,0.0 0.0,0.0 0.0,0.0 0.0,0.0 0.0,0.0" fill="#22c55e" fill-opacity="0.08" stroke="#22c55e" stroke-width="3" />
<text x="0" y="18" fill="#86efac" font-size="14">single_spot_scene</text>
<rect x="8" y="92" width="760" height="78" fill="#020617" fill-opacity="0.80" stroke="#334155" stroke-width="1" />
<text x="16" y="126" fill="#f8fafc" font-size="13">thresholds=mob>=0.60 occupied>=0.75 merge_px=28 stride=6</text>
<text x="16" y="142" fill="#f8fafc" font-size="13">raw=0 low_conf=0 merged=0 dup=0 unstable=0</text>
<text x="16" y="158" fill="#f8fafc" font-size="13">rejects=occupied=0 out_of_zone=0 selected=None</text>
</svg>