<svg xmlns="http://www.w3.org/2000/svg" width="1280" height="720" viewBox="0 0 1280 720">
<rect width="100%" height="100%" fill="#111827" />
<rect x="320" y="140" width="640" height="320" fill="none" stroke="#60a5fa" stroke-width="2" />
<text x="324" y="158" fill="#93c5fd" font-size="14">spawn_roi</text>
<line x1="630.0" y1="360.0" x2="650.0" y2="360.0" stroke="#fde047" stroke-width="2" />
<line x1="640.0" y1="350.0" x2="640.0" y2="370.0" stroke="#fde047" stroke-width="2" />
<rect x="608" y="263" width="40" height="52" fill="none" stroke="#38bdf8" stroke-dasharray="4 4" stroke-width="1" />
<text x="608" y="261" fill="#38bdf8" font-size="11">mob_a 1.00</text>
<rect x="739" y="289" width="40" height="52" fill="none" stroke="#38bdf8" stroke-dasharray="4 4" stroke-width="1" />
<text x="739" y="287" fill="#38bdf8" font-size="11">mob_b 1.00</text>
<rect x="733" y="230" width="40" height="52" fill="none" stroke="#38bdf8" stroke-dasharray="4 4" stroke-width="1" />
<text x="733" y="228" fill="#38bdf8" font-size="11">mob_a 1.00</text>
<rect x="608" y="263" width="40" height="52" fill="none" stroke="#22c55e" stroke-width="4" />
<circle cx="628" cy="289" r="4" fill="#22c55e" />
<text x="608" y="257" fill="#f9fafb" font-size="14">live-spawn-8-1 free conf=1.00 dist=72.0 marker=0.00</text>
<text x="608" y="333" fill="#fde047" font-size="14">selected</text>
<rect x="739" y="289" width="40" height="52" fill="none" stroke="#22c55e" stroke-width="2" />
<circle cx="759" cy="315" r="4" fill="#22c55e" />
<text x="739" y="283" fill="#f9fafb" font-size="14">live-spawn-8-2 free conf=1.00 dist=127.2 marker=0.00</text>
<rect x="733" y="230" width="40" height="52" fill="none" stroke="#22c55e" stroke-width="2" />
<circle cx="753" cy="256" r="4" fill="#22c55e" />
<text x="733" y="224" fill="#f9fafb" font-size="14">live-spawn-8-3 free conf=1.00 dist=153.6 marker=0.00</text>
</svg>