<svg xmlns="http://www.w3.org/2000/svg" width="1280" height="720" viewBox="0 0 1280 720">
<rect width="100%" height="100%" fill="#111827" />
<rect x="320" y="140" width="640" height="320" fill="none" stroke="#60a5fa" stroke-width="2" />
<text x="324" y="158" fill="#93c5fd" font-size="14">spawn_roi</text>
<line x1="630.0" y1="360.0" x2="650.0" y2="360.0" stroke="#fde047" stroke-width="2" />
<line x1="640.0" y1="350.0" x2="640.0" y2="370.0" stroke="#fde047" stroke-width="2" />
<rect x="672" y="224" width="40" height="52" fill="none" stroke="#38bdf8" stroke-dasharray="4 4" stroke-width="1" />
<text x="672" y="222" fill="#38bdf8" font-size="11">mob_a 1.00</text>
<rect x="775" y="261" width="40" height="52" fill="none" stroke="#38bdf8" stroke-dasharray="4 4" stroke-width="1" />
<text x="775" y="259" fill="#38bdf8" font-size="11">mob_b 1.00</text>
<rect x="596" y="281" width="40" height="52" fill="none" stroke="#38bdf8" stroke-dasharray="4 4" stroke-width="1" />
<text x="596" y="279" fill="#38bdf8" font-size="11">mob_a 1.00</text>
<rect x="596" y="281" width="40" height="52" fill="none" stroke="#22c55e" stroke-width="4" />
<circle cx="616" cy="307" r="4" fill="#22c55e" />
<text x="596" y="275" fill="#f9fafb" font-size="14">live-spawn-3-3 free conf=1.00 dist=58.2 marker=0.00</text>
<text x="596" y="351" fill="#fde047" font-size="14">selected</text>
<rect x="672" y="224" width="40" height="52" fill="none" stroke="#22c55e" stroke-width="2" />
<circle cx="692" cy="250" r="4" fill="#22c55e" />
<text x="672" y="218" fill="#f9fafb" font-size="14">live-spawn-3-1 free conf=1.00 dist=121.7 marker=0.00</text>
<rect x="775" y="261" width="40" height="52" fill="none" stroke="#22c55e" stroke-width="2" />
<circle cx="795" cy="287" r="4" fill="#22c55e" />
<text x="775" y="255" fill="#f9fafb" font-size="14">live-spawn-3-2 free conf=1.00 dist=171.3 marker=0.00</text>
</svg>