<svg xmlns="http://www.w3.org/2000/svg" width="1280" height="720" viewBox="0 0 1280 720">
<rect width="100%" height="100%" fill="#111827" />
<rect x="320" y="140" width="640" height="320" fill="none" stroke="#60a5fa" stroke-width="2" />
<text x="324" y="158" fill="#93c5fd" font-size="14">spawn_roi</text>
<line x1="630.0" y1="360.0" x2="650.0" y2="360.0" stroke="#fde047" stroke-width="2" />
<line x1="640.0" y1="350.0" x2="640.0" y2="370.0" stroke="#fde047" stroke-width="2" />
<rect x="677" y="279" width="40" height="52" fill="none" stroke="#38bdf8" stroke-dasharray="4 4" stroke-width="1" />
<text x="677" y="277" fill="#38bdf8" font-size="11">mob_a 1.00</text>
<rect x="678" y="239" width="40" height="52" fill="none" stroke="#38bdf8" stroke-dasharray="4 4" stroke-width="1" />
<text x="678" y="237" fill="#38bdf8" font-size="11">mob_b 1.00</text>
<rect x="584" y="282" width="40" height="52" fill="none" stroke="#38bdf8" stroke-dasharray="4 4" stroke-width="1" />
<text x="584" y="280" fill="#38bdf8" font-size="11">mob_a 1.00</text>
<rect x="584" y="282" width="40" height="52" fill="none" stroke="#22c55e" stroke-width="4" />
<circle cx="604" cy="308" r="4" fill="#22c55e" />
<text x="584" y="276" fill="#f9fafb" font-size="14">live-spawn-2-3 actionable_free conf=1.00 dist=63.2 m=1.00 u=1.00 f=0.00 ice=0.00 occ=0.00 seen=4</text>
<text x="584" y="352" fill="#fde047" font-size="14">selected</text>
<rect x="677" y="279" width="40" height="52" fill="none" stroke="#22c55e" stroke-width="2" />
<circle cx="697" cy="305" r="4" fill="#22c55e" />
<text x="677" y="273" fill="#f9fafb" font-size="14">live-spawn-2-1 actionable_free conf=1.00 dist=79.2 m=1.00 u=1.00 f=0.00 ice=0.00 occ=0.00 seen=4</text>
<rect x="678" y="239" width="40" height="52" fill="none" stroke="#22c55e" stroke-width="2" />
<circle cx="698" cy="265" r="4" fill="#22c55e" />
<text x="678" y="233" fill="#f9fafb" font-size="14">live-spawn-2-2 actionable_free conf=1.00 dist=111.3 m=1.00 u=1.00 f=0.00 ice=0.00 occ=0.00 seen=2</text>
<rect x="8" y="618" width="760" height="96" fill="#020617" fill-opacity="0.80" stroke="#334155" stroke-width="1" />
<text x="16" y="652" fill="#f8fafc" font-size="13">thresholds=mob>=0.60 occupied>=0.75 merge_px=28 stride=4</text>
<text x="16" y="668" fill="#f8fafc" font-size="13">seed=mode=unknown marker=0 marker_template=0 upper_rescue=0</text>
<text x="16" y="684" fill="#f8fafc" font-size="13">raw=3 low_conf=0 merged=3 candidates=0 veto=0 not_icy=0</text>
<text x="16" y="700" fill="#f8fafc" font-size="13">rejects=occupied=0 out_of_zone=0 selected=live-spawn-2-3</text>
</svg>